<svg width="100%" viewBox="108 113 454 454" role="img" xmlns="http://www.w3.org/2000/svg">
  <title>ReaBeat — reabeat_off_normal.svg</title>
  <g fill="#B8B8B8">
    <rect x="118" y="337" width="5" height="6"/>
    <rect x="125" y="336" width="5" height="8"/>
    <rect x="132" y="337" width="5" height="6"/>
    <rect x="139" y="336" width="5" height="8"/>
    <rect x="146" y="338" width="5" height="4"/>
    <rect x="153" y="337" width="5" height="6"/>
    <rect x="160" y="294" width="5" height="92"/>
    <rect x="167" y="272" width="5" height="136"/>
    <rect x="174" y="258" width="5" height="164"/>
    <rect x="181" y="268" width="5" height="144"/>
    <rect x="188" y="282" width="5" height="116"/>
    <rect x="195" y="298" width="5" height="84"/>
    <rect x="202" y="312" width="5" height="56"/>
    <rect x="209" y="322" width="5" height="36"/>
    <rect x="216" y="330" width="5" height="20"/>
    <rect x="223" y="334" width="5" height="12"/>
    <rect x="230" y="336" width="5" height="8"/>
    <rect x="237" y="337" width="5" height="6"/>
    <rect x="244" y="300" width="5" height="80"/>
    <rect x="251" y="278" width="5" height="124"/>
    <rect x="258" y="262" width="5" height="156"/>
    <rect x="265" y="274" width="5" height="132"/>
    <rect x="272" y="288" width="5" height="104"/>
    <rect x="279" y="302" width="5" height="76"/>
    <rect x="286" y="314" width="5" height="52"/>
    <rect x="293" y="323" width="5" height="34"/>
    <rect x="300" y="330" width="5" height="20"/>
    <rect x="307" y="335" width="5" height="10"/>
    <rect x="314" y="337" width="5" height="6"/>
    <rect x="322" y="292" width="5" height="96"/>
    <rect x="329" y="268" width="5" height="144"/>
    <rect x="336" y="246" width="5" height="188"/>
    <rect x="343" y="258" width="5" height="164"/>
    <rect x="350" y="274" width="5" height="132"/>
    <rect x="357" y="290" width="5" height="100"/>
    <rect x="364" y="306" width="5" height="68"/>
    <rect x="371" y="318" width="5" height="44"/>
    <rect x="378" y="327" width="5" height="26"/>
    <rect x="385" y="333" width="5" height="14"/>
    <rect x="392" y="336" width="5" height="8"/>
    <rect x="399" y="337" width="5" height="6"/>
    <rect x="406" y="298" width="5" height="84"/>
    <rect x="413" y="276" width="5" height="128"/>
    <rect x="420" y="260" width="5" height="160"/>
    <rect x="427" y="272" width="5" height="136"/>
    <rect x="434" y="286" width="5" height="108"/>
    <rect x="441" y="300" width="5" height="80"/>
    <rect x="448" y="312" width="5" height="56"/>
    <rect x="455" y="322" width="5" height="36"/>
    <rect x="462" y="329" width="5" height="22"/>
    <rect x="469" y="334" width="5" height="12"/>
    <rect x="476" y="337" width="5" height="6"/>
    <rect x="484" y="306" width="5" height="68"/>
    <rect x="491" y="286" width="5" height="108"/>
    <rect x="498" y="270" width="5" height="140"/>
    <rect x="505" y="282" width="5" height="116"/>
    <rect x="512" y="296" width="5" height="88"/>
    <rect x="519" y="310" width="5" height="60"/>
    <rect x="526" y="322" width="5" height="36"/>
    <rect x="533" y="331" width="5" height="18"/>
    <rect x="540" y="336" width="5" height="8"/>
    <rect x="547" y="338" width="5" height="4"/>
  </g>
  <line x1="110" y1="340" x2="560" y2="340" stroke="#404040" stroke-width="1"/>
  <line x1="174" y1="228" x2="174" y2="452" stroke="#C8A040" stroke-width="3"   opacity="0.80"/>
  <line x1="258" y1="220" x2="258" y2="460" stroke="#C8A040" stroke-width="4"   opacity="0.92"/>
  <line x1="336" y1="210" x2="336" y2="470" stroke="#E8C050" stroke-width="5.5" opacity="1.0"/>
  <line x1="420" y1="220" x2="420" y2="460" stroke="#C8A040" stroke-width="4"   opacity="0.92"/>
  <line x1="498" y1="228" x2="498" y2="452" stroke="#C8A040" stroke-width="3"   opacity="0.80"/>
</svg>
